<svg xmlns="http://www.w3.org/2000/svg" data-name="Layer 1" viewBox="0 0 512 512" id="due-date"><path fill="#fff" d="M457.19 7.5 419.5 46.93V462a42.503 42.503 0 0 1-42.5 42.5h-31.5L93.25 444V37.5a29.998 29.998 0 0 1 30-30Z"></path><path fill="#dadadc" d="M419.5 50A42.5 42.5 0 1 1 462 92.5h-42.5zm-42.25 369.5a42.5 42.5 0 0 0 0 85H50a42.5 42.5 0 0 1 0-85z"></path><rect width="268.752" height="51" x="121.562" y="52.5" fill="#c8c5cc" rx="15"></rect><path fill="#aeadb3" d="M375.314 52.5h-45a15 15 0 0 1 15 15v21a15 15 0 0 1-15 15h45a15 15 0 0 0 15-15v-21a15 15 0 0 0-15-15Z"></path><path fill="#fff" d="M375.314 156H136.562a7.5 7.5 0 0 1 0-15h238.752a7.5 7.5 0 0 1 0 15zm0 180H241.562a7.5 7.5 0 0 1 0-15h133.752a7.5 7.5 0 0 1 0 15zm-45 45H211.562a7.5 7.5 0 0 1 0-15h118.752a7.5 7.5 0 0 1 0 15zm45-180H211.562a7.5 7.5 0 0 1 0-15h163.752a7.5 7.5 0 0 1 0 15zm0 45H241.562a7.5 7.5 0 0 1 0-15h133.752a7.5 7.5 0 0 1 0 15zm0 45H241.562a7.5 7.5 0 0 1 0-15h133.752a7.5 7.5 0 0 1 0 15z"></path><path fill="#e1e1e3" d="M213.5 233.96v100a45.055 45.055 0 0 1-45 45H93.25v-190h75.25a45.055 45.055 0 0 1 45 45Z"></path><rect width="191" height="160" x="7.5" y="203.96" fill="#fff" rx="30"></rect><path fill="#e4222e" d="M198.5 233.96v15H7.5v-15a30.004 30.004 0 0 1 30-30h131a30.004 30.004 0 0 1 30 30Z"></path><path fill="#3c3b41" d="M330.314 366H211.562a7.5 7.5 0 0 0 0 15h118.752a7.5 7.5 0 0 0 0-15Zm45-45H241.562a7.5 7.5 0 0 0 0 15h133.752a7.5 7.5 0 0 0 0-15ZM114.062 67.5v21a22.526 22.526 0 0 0 22.5 22.5h238.752a22.526 22.526 0 0 0 22.5-22.5v-21a22.526 22.526 0 0 0-22.5-22.5H136.562a22.526 22.526 0 0 0-22.5 22.5Zm15 0a7.509 7.509 0 0 1 7.5-7.5h238.752a7.509 7.509 0 0 1 7.5 7.5v21a7.509 7.509 0 0 1-7.5 7.5H136.562a7.509 7.509 0 0 1-7.5-7.5ZM375.314 141H136.562a7.5 7.5 0 0 0 0 15h238.752a7.5 7.5 0 0 0 0-15Zm0 135H241.562a7.5 7.5 0 0 0 0 15h133.752a7.5 7.5 0 0 0 0-15ZM462 0c-1.156 0-2.3.054-3.436.131A7.535 7.535 0 0 0 457.19 0H123.25a37.542 37.542 0 0 0-37.5 37.5v158.965H50.5v-6.43a7.5 7.5 0 0 0-15 0v6.484A37.546 37.546 0 0 0 0 233.965v100a37.542 37.542 0 0 0 37.5 37.5h48.25V412H50a50 50 0 0 0 0 100h327.25c.085 0 .168-.01.253-.013A50.05 50.05 0 0 0 427 462V100h35a50 50 0 0 0 0-100ZM15 233.965a22.527 22.527 0 0 1 20.5-22.406v7.406a7.5 7.5 0 0 0 15 0v-7.5h105v7.5a7.5 7.5 0 0 0 15 0v-7.406a22.527 22.527 0 0 1 20.5 22.406v7.5H15Zm22.5 122.5a22.526 22.526 0 0 1-22.5-22.5v-77.5h176v77.5a22.526 22.526 0 0 1-22.5 22.5H93.347c-.033 0-.064-.005-.097-.005s-.064.004-.097.005ZM341.576 497H50a35 35 0 0 1 0-70h291.576a49.918 49.918 0 0 0 0 70Zm70.67-451.949A7.493 7.493 0 0 0 412 46.93V462a34.875 34.875 0 1 1-34.75-35 7.5 7.5 0 0 0 0-15h-276.5v-40.535h67.75a37.542 37.542 0 0 0 37.5-37.5v-100a37.546 37.546 0 0 0-35.5-37.446v-6.484a7.5 7.5 0 0 0-15 0v6.43h-54.75V37.5a22.526 22.526 0 0 1 22.5-22.5h303.088a49.854 49.854 0 0 0-14.091 30.051ZM462 85h-35V50a35 35 0 1 1 35 35Zm-86.686 101H211.562a7.5 7.5 0 0 0 0 15h163.752a7.5 7.5 0 0 0 0-15Zm0 45H241.562a7.5 7.5 0 0 0 0 15h133.752a7.5 7.5 0 0 0 0-15Z"></path></svg>