<svg fill="none" height="24" viewBox="0 0 24 24" width="24" xmlns="http://www.w3.org/2000/svg"><g clip-rule="evenodd" fill="#101010" fill-rule="evenodd"><path d="m11.9999 3.96793c-1.3807 0-2.50002 1.11928-2.50002 2.5 0 1.38071 1.11932 2.5 2.50002 2.5s2.5-1.11929 2.5-2.5c0-1.38072-1.1193-2.5-2.5-2.5zm-3.50002 2.5c0-1.933 1.56702-3.5 3.50002-3.5s3.5 1.567 3.5 3.5c0 1.93299-1.567 3.5-3.5 3.5s-3.50002-1.56701-3.50002-3.5z"/><path d="m1.94229 15.2673c-.10863-.2538.00913-.5477.26301-.6563l4.13722-1.7702c.25388-.1086.54774.0091.65637.263l1.77015 4.1372c.10862.2539-.00913.5478-.26301.6564s-.54775-.0091-.65638-.263l-1.57346-3.6775-3.67753 1.5734c-.25388.1087-.54775-.0091-.65637-.263z"/><path d="m9.01102 12.0226c0-.2761.22386-.5.5-.5h3.63648c3.0787 0 5.7351 2.1599 6.3632 5.1739l.226 1.0842c.453 2.1735-1.2062 4.2141-3.4264 4.2141h-8.5805c-2.16889 0-3.81499-1.9535-3.44729-4.0909.14818-.8614.4146-1.6982.79171-2.4867l.80912-1.6918c.11914-.2491.41768-.3545.6668-.2353.24911.1191.35448.4177.23533.6668l-.80912 1.6917c-.33739.7055-.57575 1.4541-.70832 2.2248-.26258 1.5264.91293 2.9214 2.46177 2.9214h8.5805c1.5859 0 2.771-1.4576 2.4474-3.0101l-.2259-1.0842c-.5315-2.5503-2.7793-4.3779-5.3843-4.3779h-3.63648c-.27614 0-.5-.2238-.5-.5z"/></g></svg>